<?xml version="1.0" standalone="no"?>
<!DOCTYPE svg PUBLIC "-//W3C//DTD SVG 20010904//EN"
 "http://www.w3.org/TR/2001/REC-SVG-20010904/DTD/svg10.dtd">
<svg version="1.0" xmlns="http://www.w3.org/2000/svg"
 width="739.000000pt" height="739.000000pt" viewBox="0 0 739.000000 739.000000"
 preserveAspectRatio="xMidYMid meet">
<metadata>
Created by potrace 1.14, written by Peter Selinger 2001-2017
</metadata>
<g transform="translate(0.000000,739.000000) scale(0.100000,-0.100000)"
fill="#000000" stroke="none">
<path d="M3458 7385 c-1 -1 -43 -6 -93 -9 -49 -4 -97 -9 -105 -11 -8 -2 -42
-6 -75 -10 -159 -16 -495 -96 -700 -167 -223 -76 -536 -225 -731 -348 -85 -53
-253 -167 -289 -197 -6 -4 -53 -42 -106 -85 -137 -109 -306 -271 -440 -423
-58 -65 -60 -68 -89 -105 -14 -17 -35 -44 -48 -58 -12 -15 -56 -75 -97 -133
-312 -442 -526 -943 -620 -1445 -21 -118 -24 -134 -30 -194 -4 -30 -8 -62 -10
-70 -26 -99 -26 -665 0 -860 2 -19 7 -54 10 -78 3 -24 7 -53 10 -65 2 -12 7
-39 10 -60 13 -93 60 -297 92 -402 52 -171 104 -315 144 -402 10 -24 19 -45
19 -48 0 -15 154 -312 210 -405 249 -416 570 -773 949 -1057 53 -39 108 -81
123 -92 14 -12 30 -21 35 -21 5 0 18 -8 29 -18 21 -20 195 -124 314 -190 216
-118 521 -236 795 -307 165 -43 304 -69 475 -91 235 -29 656 -34 820 -9 14 2
50 6 80 10 277 30 635 122 922 236 140 55 366 166 501 246 105 62 256 160 267
173 3 3 21 17 40 30 19 13 80 60 135 104 554 444 976 1054 1196 1731 41 125
93 322 103 389 4 21 8 41 10 45 3 3 7 27 11 51 3 25 10 70 16 101 5 31 12 78
14 105 3 27 8 81 12 119 10 91 10 578 0 675 -12 119 -23 197 -53 375 -3 17
-12 55 -19 85 -8 30 -16 66 -19 80 -34 176 -152 499 -269 740 -59 120 -236
427 -261 453 -7 6 -21 26 -31 42 -28 44 -140 190 -199 260 -236 279 -521 529
-829 729 -64 42 -119 76 -122 76 -3 0 -23 11 -46 25 -56 36 -320 166 -404 200
-38 15 -83 33 -100 40 -100 43 -420 139 -525 159 -14 2 -59 11 -100 20 -41 8
-93 18 -115 21 -23 3 -50 7 -60 9 -11 2 -52 7 -92 11 -40 4 -85 9 -100 11 -32
6 -559 14 -565 9z"/>
</g>
</svg>
